/* XPM */
static char *result[] = {
/* columns rows colors chars-per-pixel */
"64 63 5 1 ",
"  c black",
". c #010101",
"X c #020202",
"o c gray1",
"O c #040404",
/* pixels */
"                                                                ",
"                                                                ",
"                                                                ",
"                                                                ",
"                                                                ",
"                                                                ",
"                                                                ",
"                                                                ",
"                                                                ",
"                                                                ",
"                                                                ",
"                                                                ",
"                                                                ",
"                                                                ",
"                                                                ",
"                                                                ",
"                                                                ",
"                                                                ",
"                                                                ",
"                                                                ",
"                                                                ",
"                                                                ",
"                                                                ",
"                                                                ",
"                                                                ",
"                                                                ",
"                                                                ",
"                                                                ",
"                                                                ",
"                                                                ",
"                                                                ",
"                                                                ",
"                                                                ",
"                                                                ",
".......                                                         ",
"........                                                        ",
"........                                                        ",
"........                                                        ",
"                                                                ",
"                                                                ",
"                                                                ",
"                                                                ",
"                                                                ",
"                                                                ",
"                                                                ",
"                                                                ",
"                                                                ",
"                                                                ",
"                                                                ",
"                                                                ",
"                                                                ",
"                                               ......XX        .",
"                                               .XXXXXXX        X",
"                                               ..              X",
"                                               ....            .",
"                                               oOooXX..        .",
"                                               OOOooX..        X",
"                                               XoXX.           o",
"                                               ........        X",
"                                               ........        X",
"                                               ........        .",
"                                               ........         ",
"                                               ........         "
};
