/* XPM */
static char *result[] = {
/* columns rows colors chars-per-pixel */
"64 64 21 1 ",
"  c #050200",
". c #100601",
"X c #120701",
"o c #130701",
"O c #130802",
"+ c #190A02",
"@ c #291003",
"# c #311303",
"$ c #351504",
"% c #371504",
"& c #381604",
"* c #391604",
"= c #943809",
"- c #9F3D0A",
"; c #AC420A",
": c #AC420B",
"> c #B3440B",
", c #B9460B",
"< c #BC480C",
"1 c #C24A0C",
"2 c #C84C0C",
/* pixels */
"2222222o1222222o1222222o1222222o1222222o1222222o1222222o1222222o",
"2222222O1222222O1222222O1222222O1222222O1222222O1222222O1222222O",
",,,,,,,X>,,,,,,X>,,,,,,X>,,,,,,X>,,,,,,X>,,,,,,X>,,,,,,X>,,,,,,X",
"&*%@$**+%*%@$**+%*%@$**+%*%@$**+%*%@$**+%*%@$**+%*%@$**+%*%@$**+",
";:-#=:::::-#=:::::-#=:::::-#=:::::-#=:::::-#=:::::-#=:::::-#=:::",
"22,*:22222,*:22222,*:22222,*:22222,*:22222,*:22222,*:22222,*:222",
"22,*:22222,*:22222,*:22222,*:22222,*:22222,*:22222,*:22222,*:222",
"oOX .OOOOOX .OOOOOX .OOOOOX .OOOOOX .OOOOOX .OOOOOX .OOOOOX .OOO",
"1111111X<111111X<111111X<111111X<111111X<111111X<111111X<111111X",
"2222222O1222222O1222222O1222222O1222222O1222222O1222222O1222222O",
",,,,,,,X>,,,,,,X>,,,,,,X>,,,,,,X>,,,,,,X>,,,,,,X>,,,,,,X>,,,,,,X",
"&*%@$**+%*%@$**+%*%@$**+%*%@$**+%*%@$**+%*%@$**+%*%@$**+%*%@$**+",
";:-#=:::::-#=:::::-#=:::::-#=:::::-#=:::::-#=:::::-#=:::::-#=:::",
"22,*:22222,*:22222,*:22222,*:22222,*:22222,*:22222,*:22222,*:222",
"22,*:22222,*:22222,*:22222,*:22222,*:22222,*:22222,*:22222,*:222",
"oOX .OOOOOX .OOOOOX .OOOOOX .OOOOOX .OOOOOX .OOOOOX .OOOOOX .OOO",
"1111111X<111111X<111111X<111111X<111111X<111111X<111111X<111111X",
"2222222O1222222O1222222O1222222O1222222O1222222O1222222O1222222O",
",,,,,,,X>,,,,,,X>,,,,,,X>,,,,,,X>,,,,,,X>,,,,,,X>,,,,,,X>,,,,,,X",
"&*%@$**+%*%@$**+%*%@$**+%*%@$**+%*%@$**+%*%@$**+%*%@$**+%*%@$**+",
";:-#=:::::-#=:::::-#=:::::-#=:::::-#=:::::-#=:::::-#=:::::-#=:::",
"22,*:22222,*:22222,*:22222,*:22222,*:22222,*:22222,*:22222,*:222",
"22,*:22222,*:22222,*:22222,*:22222,*:22222,*:22222,*:22222,*:222",
"oOX .OOOOOX .OOOOOX .OOOOOX .OOOOOX .OOOOOX .OOOOOX .OOOOOX .OOO",
"1111111X<111111X<111111X<111111X<111111X<111111X<111111X<111111X",
"2222222O1222222O1222222O1222222O1222222O1222222O1222222O1222222O",
",,,,,,,X>,,,,,,X>,,,,,,X>,,,,,,X>,,,,,,X>,,,,,,X>,,,,,,X>,,,,,,X",
"&*%@$**+%*%@$**+%*%@$**+%*%@$**+%*%@$**+%*%@$**+%*%@$**+%*%@$**+",
";:-#=:::::-#=:::::-#=:::::-#=:::::-#=:::::-#=:::::-#=:::::-#=:::",
"22,*:22222,*:22222,*:22222,*:22222,*:22222,*:22222,*:22222,*:222",
"22,*:22222,*:22222,*:22222,*:22222,*:22222,*:22222,*:22222,*:222",
"oOX .OOOOOX .OOOOOX .OOOOOX .OOOOOX .OOOOOX .OOOOOX .OOOOOX .OOO",
"1111111X<111111X<111111X<111111X<111111X<111111X<111111X<111111X",
"2222222O1222222O1222222O1222222O1222222O1222222O1222222O1222222O",
",,,,,,,X>,,,,,,X>,,,,,,X>,,,,,,X>,,,,,,X>,,,,,,X>,,,,,,X>,,,,,,X",
"&*%@$**+%*%@$**+%*%@$**+%*%@$**+%*%@$**+%*%@$**+%*%@$**+%*%@$**+",
";:-#=:::::-#=:::::-#=:::::-#=:::::-#=:::::-#=:::::-#=:::::-#=:::",
"22,*:22222,*:22222,*:22222,*:22222,*:22222,*:22222,*:22222,*:222",
"22,*:22222,*:22222,*:22222,*:22222,*:22222,*:22222,*:22222,*:222",
"oOX .OOOOOX .OOOOOX .OOOOOX .OOOOOX .OOOOOX .OOOOOX .OOOOOX .OOO",
"1111111X<111111X<111111X<111111X<111111X<111111X<111111X<111111X",
"2222222O1222222O1222222O1222222O1222222O1222222O1222222O1222222O",
",,,,,,,X>,,,,,,X>,,,,,,X>,,,,,,X>,,,,,,X>,,,,,,X>,,,,,,X>,,,,,,X",
"&*%@$**+%*%@$**+%*%@$**+%*%@$**+%*%@$**+%*%@$**+%*%@$**+%*%@$**+",
";:-#=:::::-#=:::::-#=:::::-#=:::::-#=:::::-#=:::::-#=:::::-#=:::",
"22,*:22222,*:22222,*:22222,*:22222,*:22222,*:22222,*:22222,*:222",
"22,*:22222,*:22222,*:22222,*:22222,*:22222,*:22222,*:22222,*:222",
"oOX .OOOOOX .OOOOOX .OOOOOX .OOOOOX .OOOOOX .OOOOOX .OOOOOX .OOO",
"1111111X<111111X<111111X<111111X<111111X<111111X<111111X<111111X",
"2222222O1222222O1222222O1222222O1222222O1222222O1222222O1222222O",
",,,,,,,X>,,,,,,X>,,,,,,X>,,,,,,X>,,,,,,X>,,,,,,X>,,,,,,X>,,,,,,X",
"&*%@$**+%*%@$**+%*%@$**+%*%@$**+%*%@$**+%*%@$**+%*%@$**+%*%@$**+",
";:-#=:::::-#=:::::-#=:::::-#=:::::-#=:::::-#=:::::-#=:::::-#=:::",
"22,*:22222,*:22222,*:22222,*:22222,*:22222,*:22222,*:22222,*:222",
"22,*:22222,*:22222,*:22222,*:22222,*:22222,*:22222,*:22222,*:222",
"oOX .OOOOOX .OOOOOX .OOOOOX .OOOOOX .OOOOOX .OOOOOX .OOOOOX .OOO",
"1111111X<111111X<111111X<111111X<111111X<111111X<111111X<111111X",
"2222222O1222222O1222222O1222222O1222222O1222222O1222222O1222222O",
",,,,,,,X>,,,,,,X>,,,,,,X>,,,,,,X>,,,,,,X>,,,,,,X>,,,,,,X>,,,,,,X",
"&*%@$**+%*%@$**+%*%@$**+%*%@$**+%*%@$**+%*%@$**+%*%@$**+%*%@$**+",
";:-#=:::::-#=:::::-#=:::::-#=:::::-#=:::::-#=:::::-#=:::::-#=:::",
"22,*:22222,*:22222,*:22222,*:22222,*:22222,*:22222,*:22222,*:222",
"22,*:22222,*:22222,*:22222,*:22222,*:22222,*:22222,*:22222,*:222",
"oOX .OOOOOX .OOOOOX .OOOOOX .OOOOOX .OOOOOX .OOOOOX .OOOOOX .OOO"
};
