/* XPM */
static char *c58c370c64a64895de6001aa944cbfb78Dsm0DgoVSr7txMj[] = {
/* columns rows colors chars-per-pixel */
"64 64 202 2 ",
"   c #0C0906",
".  c #161B1C",
"X  c #1B1C1C",
"o  c #141515",
"O  c #18120A",
"+  c #231E18",
"@  c #2F1D09",
"#  c #22211F",
"$  c #2C2113",
"%  c #3D2C0F",
"&  c #1A1F20",
"*  c #1C2324",
"=  c #1F2728",
"-  c #1F2829",
";  c #232423",
":  c #2A2926",
">  c #202728",
",  c #232B2C",
"<  c #2D2D2B",
"1  c #282725",
"2  c #302F2C",
"3  c #34322F",
"4  c #252F30",
"5  c #292F30",
"6  c #263133",
"7  c #2A3334",
"8  c #2B3738",
"9  c #2E3A3C",
"0  c #353432",
"q  c #393836",
"w  c #323C3D",
"e  c #3C3C3A",
"r  c #393734",
"t  c #432C11",
"y  c #493416",
"u  c #563A1F",
"i  c #403F3C",
"p  c #593E22",
"a  c #3C403F",
"s  c #704A17",
"d  c #4F4733",
"f  c #6A4C24",
"g  c #63552C",
"h  c #7D5623",
"j  c #6D613D",
"k  c #323F40",
"l  c #2F3E40",
"z  c #344244",
"x  c #3B4445",
"c  c #374649",
"v  c #3A4749",
"b  c #3B4A4D",
"n  c #3D4E51",
"m  c #3E5154",
"M  c #434443",
"N  c #434B4C",
"B  c #4B4D4C",
"V  c #464846",
"C  c #424F50",
"Z  c #425355",
"A  c #4A5354",
"S  c #435659",
"D  c #4A5758",
"F  c #455A5D",
"G  c #4B5B5D",
"H  c #525656",
"J  c #525C5C",
"K  c #565B54",
"L  c #4F514F",
"P  c #615740",
"I  c #5B605F",
"U  c #61615F",
"Y  c #475D61",
"T  c #4A5E61",
"R  c #535F61",
"E  c #4D6265",
"W  c #4E6569",
"Q  c #4F686C",
"!  c #536365",
"~  c #5A6363",
"^  c #536669",
"/  c #536A6D",
"(  c #5B6B6D",
")  c #5C6769",
"_  c #546E71",
"`  c #5B6E71",
"'  c #577175",
"]  c #5B7275",
"[  c #5B757A",
"{  c #5D797D",
"}  c #626C6D",
"|  c #656765",
" . c #646F70",
".. c #637375",
"X. c #6B7374",
"o. c #627679",
"O. c #637A7D",
"+. c #6A7A7D",
"@. c #6B7678",
"#. c #727B7A",
"$. c #737366",
"%. c #AC791D",
"&. c #91632C",
"*. c #AC7A3D",
"=. c #A96C26",
"-. c #85582A",
";. c #C1791E",
":. c #817D6B",
">. c #7D807F",
",. c #C89737",
"<. c #86806C",
"1. c #D4B54D",
"2. c #DDC355",
"3. c #E2C94E",
"4. c #5E7C80",
"5. c #637E82",
"6. c #6A7E81",
"7. c #737F81",
"8. c #658185",
"9. c #6B8285",
"0. c #66858A",
"q. c #6C8689",
"w. c #6D898D",
"e. c #67888C",
"r. c #738385",
"t. c #7A8283",
"y. c #718689",
"u. c #738A8D",
"i. c #7B8A8C",
"p. c #798789",
"a. c #6E8D91",
"s. c #748E91",
"d. c #7A8E91",
"f. c #6E9094",
"g. c #749295",
"h. c #7C9295",
"j. c #769599",
"k. c #7C9699",
"l. c #7C999D",
"z. c #7E9DA1",
"x. c #838E8E",
"c. c #838985",
"v. c #839395",
"b. c #899496",
"n. c #819699",
"m. c #8A9799",
"M. c #85999C",
"N. c #8A9B9D",
"B. c #929C9C",
"V. c #939796",
"C. c #868F90",
"Z. c #829EA1",
"A. c #8B9EA1",
"S. c #929EA1",
"D. c #84A1A5",
"F. c #8EA1A4",
"G. c #8AA6A9",
"H. c #8EAAAD",
"J. c #87A5A8",
"K. c #93A3A5",
"L. c #9AA5A6",
"P. c #95A6A9",
"I. c #9BA7A9",
"U. c #94A9AC",
"Y. c #9BABAD",
"T. c #94AEB1",
"R. c #9EAEB1",
"E. c #96B1B4",
"W. c #9AB2B5",
"Q. c #9DB6B9",
"!. c #9EB8BA",
"~. c #A2ABAD",
"^. c #A5A8A8",
"/. c #A1AFB1",
"(. c #A8AFB0",
"). c #A4B2B4",
"_. c #AAB4B6",
"`. c #A2B6B9",
"'. c #A9B6B8",
"]. c #A5BABD",
"[. c #ACBABC",
"{. c #B2BCBE",
"}. c #B8BEBE",
"|. c #AEB0AF",
" X c #ABBEC1",
".X c #A6BEC0",
"XX c #B3BFC0",
"oX c #ACC2C4",
"OX c #AFC6C9",
"+X c #B4C2C4",
"@X c #BAC4C5",
"#X c #B3C6C9",
"$X c #BAC7C8",
"%X c #BCCACC",
"&X c #B6C9CC",
"*X c #BCCED1",
"=X c #C2CBCD",
"-X c #C3C7C7",
";X c #C2CED0",
":X c #C4D1D3",
">X c #CCD7D8",
",X c #D0D0CF",
/* pixels */
"I.$X-X$X@X@X}.}.{._.(._.'.'.(.(._.^.).~.~.~.I.^.~.^.Y.Y.Y.^.I.K.B.Y.I.S.K.K.I.S.I.K.I.B.K.L.I.K.L.S.K.I.I.~.S.S.I.(.~.L.I.R.~.R ",
"_.k.j.D.G.E.E.`.K.l.D.g.M.M.O.] O.' 9.8.w.8.[ ] O.[ ' [ 0.u.8./ ^ 5.e._ ] O.O./ _ 5.q./ / 8.q.] ! _ [ 5.5.4.] / _ 5.g.5.5.] 0.C ",
").e.e.g.z.T.T.@XV.] q.l.Z.j.8.(.L S ' [ l.w.u.I.| G [ w.w.8.[ ^.e Y { _ [ q.] x.U S ' W / 8.5.B.L S _ 5.0.[ _ C.U n 0.4.' Y ] z ",
"{.k.[ 5.l.U.W.v.B { D.D.U.G.a.D , W 4.g.g.s.u.G 0 ^ { w.q.' / b ; E ' _ _ _ / b , m W Y / 8.0.A , E [ 4.a.5.Q C , Z 5.' Q Y _ n ",
"{.k._ 8.l.Q.oX'.H.l.D.U.E.H.D.M.g.8.4.g.w.h.g.5.8.8.[ g.q.{ O.8.' _ ' _ _ ' _ Y W Y Q m _ { 9.{ _ 4.[ 5.s.0.4._ Q ' { _ ' [ 4.n ",
"_.H.g.l.T.s...( G Z Z Z C b v b c z 9 x 9 k z 9 8 9 8 z z w w 9 9 8 9 8 7 8 6 4 - 6 6 6 6 9 a w l x k k c k k k l 6 i._ ' 4.Q c ",
"_.G.G.g.T.g.Z v w 7 4 , , , , , = * * * * . * & * * * * > ; = * * = * . . & & . . . . = * * , = ; > = > > & ; & & 7 P._ Q _ W l ",
"[.D.-XJ J.g.G G Z b x z w q 9 9 4 4 * - = * * * * , 6 6 5 , , , = , - = * = * * * * = 6 , 6 7 6 4 4 , > 4 = = & & 8 I./ d.D Y l ",
"[.T.) R Q.l.^ ) ! ~ G D Z N b x 8 w w w 4 4 6 6 7 7 8 8 7 7 4 6 4 6 7 , - 4 - = = = - 8 7 6 7 7 9 6 4 , 7 4 , - , 9 Y.] J 7 n z ",
"{.Q.E.!.OXw.R ..( +.q.6.X.( G A c b b b 8 a c 9 z b z b b z 9 w 9 z z w 8 9 8 8 6 6 9 z z z l z z z 9 l 9 9 6 8 8 k R.5.W T Y v ",
"{..XoXoXoXj.! ` _ u.n.n.h.y.+.^ Z Z Z Z z m m b A Z Z Z G Z b c z c b n z l 6 l c z c m b m Z Z Z Z c c z z 9 k k v ).j.a.0.W z ",
"{.!.OX*XOXA.! ( o.q.l.l.g.u.9.o.E ^ / E c F m m F T ^ ~ ! ^ ! D G Z n n m c z z c n F m F T ^ E F T n S Z n n C b N ).j.4.4.[ n ",
"+X!.OX&XoXs.T E >.j.f.z.F.M.s.O./ / ] ( Y G b b F F T ^ E ^ ! ^ ` ( S b m b c c n m F m F Q Q Q T E F G R ^ R D D C `.z.{ 4.8.m ",
"{.oX.X%X&Xu.Z G >.n.j.z.D.F.A.9.W E ] E F / n m G T F ^ ^ E E ( ..` ! S m n c m Y E _ m ^ { S m E _ G F T ~ T G T D '.j.4.[ 0.m ",
"{..XOX&X*Xj.n ( ' f.J.T.g.A.h.q.S m _ / Y E n F E / E E ^ ( ! o.+.+.( W F n b Y m E _ Q / E F m E ] ^ T G ^ ! G R R XXz.4.[ 0.m ",
"{..X,Xx.#XZ.G E [ a.U.Q.G.H.D.O.b m / / Z E E m Z F E F / O.+.+.9.6.+.] W / F E E W E Q / Q W / _ _ ` ` ^ T ^ ~ ! J '.s.w.^ ' c ",
"+X Xt.I &XG.J ( [ k.U.`..X].l.^ c b m m E ] ] F m F / W / q.i.9.5.7.d.u.y.6.[ W T Y T S ] 5.u.6.5.O.6.O.` ( ^ ( ) J {.a.t.B S v ",
"@X#X[.+X:XP.! o.r.P.U.oX$X`.j.F b b b E _ { _ F S F E Q E +.h.h.5.i.n.i.h.n.6.T Y T 5.5.d.h.n.h.u.6.5.6.o.`  .( ^ R XXT.5.S 5.n ",
"-X*X;X:X>XY.} >.u.P.Z..X+X].s.S n b m Q _ +.] / Y E T ] 8.O.u.u.[ u.5.u.Z.A.n.u.o.4.6.s.A.n.n.d.n.d.u.] ` +.+...( R }.`.T.j.0.F ",
"@X;X>X>X>X).` 9.d.P.`.`.$X+Xs.[ _ Y Q ' ] q.+.` E ] ' d.h.u.n.h.4.y.i.v.Z.m.m.Z.h.d.u.n.A.A.A.u.n.d.y.` 9.7.6.o.( G {. X`.j.a.F ",
"@X%X%X:X>X)...>.m.).].].$X%XU.A.h.y.9.O.[ 9.[ E E W o.u.v.h.n.h.7.6.h.A.S.A.A.k.s.n.A.A.S.U.A.h.M.m.d.r.v.d.r.7.+.R `.W..XT.U.! ",
"@X%X%X:X>X].] >.m._.XX+X#X+XT.A.K.m.q.] [ +.] W _ ] 5.M.M.{ 8.n.h.Z.Z.Y.S.A.P.Z.n.A.S.P.Y.U.P.A.S.A.m.d.d.C.i.p.7.} XXH.T.W.`...",
"-X%X).].>X/.( ] v.{.$X=X+X`.W.Y.N.n.u.[ 5.O.{ O.5.5.h.Y.n.u.s.n.s.h.n.P.A.U./.U.A.P.R.U.R.Y.P.S.K.P.S.N.v.d.x.r.+.} +XW.U.'..X7.",
"@XXX,X| $XL.) +.b.'.$X;X+X X/.l.h.s.v.h.q.9.q.u.5.+.h.k.M.K.n.q.7.s.n.R.Y.R./.).)./.Y.Y.Y.P.A.I.Y.R.K.m.v.6.o...E R XX`.).t.I.@.",
"@X@X .~ +Xm.) r.6.M.{.:X%X$XF.A.n.q.n.N.h.5.q.h.u.u.M.k.A.A.k.P.z.h.k.).R.R.R.Y././.`./._.R.R./.Y.).Y.m.v.i.o.( ! A ).G. .V v.` ",
"@X=X@X@X=XC.~ @.i.I.F.$X=XXXF.M.n.u.F.Y.Y.Y.~.F.M.K.M.Y.Y.R.h.P.Z.U.S. X)./. XY./._.[._.`./._._./.R.^.I.B.b.9.` T T '.l.5.u.`. .",
"+X$X$X:X%Xb.K X.#.N.).}.+X{.R.P.).M.P.'.{.+X[.Y.d.P.n.Y.XX).M.F.A.S.U.P./.'.p.X. . .X.X. .X.X. .@.b.Y.I.I.b.9.( G D _.U.D.G.z.F ",
"}.+X X$X=Xi.A  .t.v.).XX XR.R.P.F.F.F.Y.K._.Y.N.M.M.u.F.).M.N.A.A.).R.U./.P.V M V M B M L B V i ; K I.Y.Y.B.m.9.( C /.l.0.G.a.b ",
"_.oX].$X%Xt.N  .+.v.I.'./.A.U._.N.M.P.W._.).g.q.M.h.+.u.).W.Y.P.A.R.S.Z.'.S.N e V 1 3 r i : B # . H I.V.c.>.r.o.E A R.g.8.e.e.z ",
"'.XXXX%X#X>.A X.t.i.A./.Y.P.R.XXF.h.P.).).).n.u.n.n.9.d./.[.Y.P.Z.). XS.'.R.L 0 1 1 3 0 0 2 # X . H C.s s s y e ! D Y.a.a.[ ' c ",
"}.@X$X@X&X>.Z @.#.p.h.R.R.A.n.[.P.h.P.).).R.P.F.F.u.y.).{.'.[.'.A._.S./.Z.S.L e # 1 3 3 0 2 : 2 . H $.f 3.&.+ X ! G W.j.8.[ 4.z ",
"}.@X-X| '.( B } @. ...N.).U.R.`.M.F.Y.Y.).}.[.Y.P.Y.).+X-X+X$X$XS./.Z.P.A.A.B < 1 2 2 0 k d 0 : X C i.j 2.s   X ) J R.4.u.R [ n ",
"XX[.| k S.) x R R R ( 6.A.M.A.S.h.A.P.P.R.'.).A.Y.[._.'.+XXX[.@X`. XU.).S.u.N < # 2 : : 3 r 2 1 X H S.:.3.t # & a D ).8.@.d [ Y ",
"{.'.m.d.g.R k D R R ` u.n.h.k.A.u.k.d.d.A.R.P.U.`.`.U.R.XX)././././.A./. XS.V ; # g -.-.&.p 2 3 & L S.:.1.t M 4 5 b ).H.q. .g.S ",
"_.A.Z.k.W c 9 A R R ` u.A.A.U.M.d.n.q.n.A.Y.A.Y.XX/.A.R.[.U.P.P.P.A.A.P.'.R.V ; 1 f s @ =.p 1 i & B I.:.1.t A 8 , B ).T.W.].J.^ ",
"S.T l.Z._ k 0 C T ! +.d.U.R.U.N.n.d.U.Y.R.Y.).R././.I.U.R.A.Y.R.n.S.Z.A./.S.M 2 + f ;.t ,.f 3 3 o A L.$.1.y N 7 , D '.G.U.].J.^ ",
"S.T 5.' W c 4 k D G o.M.K.R.P.`./.P.). X'.R./.Y.P.).).A.h.n.R./.Y.P.n.u.Z.5.k i 2 j =.-.=.f 0 < X B B.$.,.t C 8 , Z XX].].W.H./ ",
"S.^ _ T Y z 4 9 x C ^ +.k.A.A.'.XX'.[. X[.).S.R.).R.P.s.9.A.A.M.A.n.A.5.6.` M V i P *.*.*.u 0 0 & B B.U %.@ B 7 , A +XU.!.D.D.F ",
"b.^ T m m k , 0 k n ! 5.s.K.F.Y.'.'.XX[. X/.S.P._.`.Y.s.M.Z.d.8.5...../ / / i M i q r r 2 < < i . N C.K s O B 8 , N [.oXl.g.f.E ",
"m.( L.9 z 9 4 7 k C T 5.[ F.F.K.K._.[._.`.R.R.R._.).R.P.n.d.5.O.5.T T _ / ` i r q i i i q 0 0 e . N @.y @   $ . , A [.].F.( { ^ ",
"S.T x * n l > 4 k n F { [ d.d.k.A././././.Y.R._./././.K.A.u.5.8.5.Y Y ^ W / k 0 r i i r r r i i X N D y     O   , ~ +XQ.V.V ] o.",
"m._ Y m m l , 8 k b Z ` { 9.k.d.A.R.Y.U.U.R.R./.P.U.Y.Y.A.s.6.8.5.5.Y ^ T / k i L 0 r 0 i k U 3 X v @.k ; o   o < ~ $X`.M.] 8.( ",
"m.] Q Y n 8 , 4 l z b T _ y.n.A.A.A.U.A.P.P.Y.A.M.A.K.A.A.s.d.y.5.5._ ' ' / M k 0 < 3 0 r r M ; . x 9.y.r...e * 7 ~ =XQ.E.[.T./ ",
"b.] W S Y 9 = 8 l v Y ^ ` d.k.n.A.A.K.A.A.A.A.M.h.A.n.k.d.s.s.u.5.5.6.[ ^ T 2 # X X + # + & + o . x q.u.v.v.r.w 0 ( =X$X].OX+X^ ",
"m._ Q S m 7 = 4 8 n S ^ 5.6.s.s.s.k.A.A.A.M.n.d.n.n.n.A.k.q.5.O.6.w.w.' _ T 8 & & & & & & & > , : Z u.u.q.y.i.r...@.:X%X].%X&X] ",
"A.' Q _ Y 9 * 4 8 C ^ +.r.6.d.u.d.d.m.A.A.n.n.d.y.s.A.d.v.d.8.s.u.u.a.6.' Y Y Y ^ T Z S W m ^ o.r.+.u.w.i.y.i.y.+.} =X#XoX].].( ",
"S.] _ / F l * 4 k D ` 6.] o.+.q.y.y.m.A.m.k.n.n.d.y.M.n.q.s.5.y.y.q.w.5.4.T T 4.[ [ [ 5.4.w.h.z.h.g.q.u.u.9.6.+.] ! $X].].E.W.( ",
"b._ m.k Y l = 4 k C ~ o.` ] [ 8.y.6.u.s.h.d.y.v.d.d.d.M.6.6.8._ 5.s.5.5.` Y Y _ W / 4.4._ 4.5.q.q.u.+.] +.o.o.] ( J $XW.U.+.w.F ",
"m._ H , Y n 4 7 k C G ( o.o.+.6.6.[ 6.6.y.y.q.u.y.q.d.d.8.] 8.' _ 6.W W T W / Q [ / Y S T W [ [ O.8.>.' ] ( ] ^ ( J {.D.B.K ^ F ",
"B.{ ! T _ n 5 7 w N D ^ ` +.+.+.+.] 5.o.6.6.y.6.6.5.d.d.5.T ^ { _ ' / Y S W W Q _ E W Y T W ` 5.{ [ 8.[ ` ^ ( ! ) D '.l./ n 5.Z ",
"m._ _ 4.] b , 5 8 x C ! ( _ o. .^ ! ` ^ ] o.o.6.6.5.6.6.[ E Y Q _ / _ T Y / / T ^ Y S Z T W T 6.O./ / / E G ! ! ! b Y.8.' 8.0.b ",
"A.4.5.5.5.n > 5 7 9 b G T R ^ ^ S F T T / ` ` ] o.` 5.^ ^ ! n E ^ Y T Y m T T Y Y S S Y / Y T ` E Z Z m Z Z D G Z x Y.{ { [ 5.c ",
"S.8.q.0.4.n > , 4 6 c A C F T A v n T T ! _ ^ ! ^ ^ ` S S Z c S Y Z S b n T m S z c Z T R T Y Y Z b b z b b b Z c x K.4.4.4.8.c ",
"m.[ s.5.4.n > > = 4 9 C C C n b n n T T ^ R R ^ T Y T S n n b n Z n S Z c S m v k z n b n S C n b c c z c b v c x z K.O.W Q ' z ",
"N.5.5.s.k.T , , = , 9 b n b n c C Y ^ R ( ^ T F S C m C v c v n k Z n C c n v z k l n n c n C c z c c c z z c z z 8 N.8.Q E _ z ",
"S.6.|.A j.R , > = 4 l z A b z c n G R T R T C n D v n S Z c z c l b b m b k k l l l v z c v N b c v z z a z x c w w N.{ +.Z m 9 ",
"S.0.H w 9.T , * = 4 w z N b k c n S R G S G C v C v b D n k l k k l c b c k k k k k k c k c c k k x x k l l z 9 9 w B.' | 7 c 9 ",
"/.l.y.s.k.T B N N N A A A A D D R ~ } ) } R R R R R R R R A A A A D A A C D C A A A C N N V N N v N N N v V V N M x N.W S z E z ",
"/.Z.z.T.G.`. X'.).).).[.'.'.+X+X%X;X;X$X%X#XXX XXX X XXX X_.).'. X[.XX_./._./._.'._./.`././.).).R./././.)./././.W.Y.I.W W E _ z ",
"/.Z.H.U.J.g.0.0.4.] [ 0.j.k.k.l.P.Z.T.l.j.s.a.0.4.5.[ q.a.4.4.4.9.q.4.[ [ [ [ 5.' 5.[ ' 5./ _ / E _ 5.4.[ O.5.O.[ ` / m F Y E 8 ",
").z.z.T.Z.a.4.m.| S ' w.a.j.j._.R u.Z.z.0.a.j.S.R Y W 4.5.5.4.^.B _ W _ _ 4.5.C.| T [ ' 4._ Y C.B ! { _ ' { 5.b.^ m Y b m Y W 9 ",
"/.k.j.J.Z.a.0.T 5 n 4.s.q.q.a.H 7 [ j.Z.j.4.q.D 3 n W 5.k.u.' A , W _ / ' 5.' A 5 m _ Q [ Y Y k ; T ] { { { 8.J 6 c Y b n Y Q l ",
"/.G.D.G.G.j.0.[ W _ 4.j.q.[ [ 5.' s.j.f.a.5.0./ T _ ' w.Z.5.4.W Y / ' [ [ ' Q ' W W ' Y Q Q Y n m _ [ Q ' { { ] F ' E b m m E l ",
" .T F T T S n Z z l z n n b k b c b n b b z k l c k k n C k l 8 l k k l k k 8 l k 6 l 6 7 9 7 7 7 9 9 8 w z z 6 k z l 4 4 6 6 - "
};
