/* XPM */
static char *b6d2128034034a95b052ca69f903a5fcqKxxL61RD9n9y67B[] = {
/* columns rows colors chars-per-pixel */
"10 10 92 1 ",
"  c #861919",
". c #7C1515",
"X c #792424",
"o c #861313",
"O c #871414",
"+ c #691A1A",
"@ c #7C2222",
"# c #841212",
"$ c #721717",
"% c #711616",
"& c #611010",
"* c #652424",
"= c #6D0F0F",
"- c #6A0F0F",
"; c #591616",
": c #6C1E1E",
"> c #6F1313",
", c #661313",
"< c #651414",
"1 c #890000",
"2 c #860000",
"3 c #5D1E1E",
"4 c #900606",
"5 c #830000",
"6 c #840000",
"7 c #8A0000",
"8 c #6A1A1A",
"9 c #900000",
"0 c #7A1616",
"q c #780F0F",
"w c #761616",
"e c #7A1111",
"r c #612323",
"t c #7E0F0F",
"y c #790F0F",
"u c #720F0F",
"i c #791616",
"p c #6C1B1B",
"a c #640F0F",
"s c #691313",
"d c #641010",
"f c #552626",
"g c #6C1111",
"h c #660F0F",
"j c #621111",
"k c #681010",
"l c #561515",
"z c #9D0000",
"x c #721212",
"c c #920A0A",
"v c #940000",
"b c #8C0000",
"n c #762121",
"m c #9A0000",
"M c #950000",
"N c #920000",
"B c #701515",
"V c #6B1515",
"C c #6D0E0E",
"Z c #6A1C1C",
"A c #6F1A1A",
"S c #761313",
"D c #751111",
"F c #691414",
"G c #791111",
"H c #740909",
"J c #6B0808",
"K c #690707",
"L c #6A0808",
"P c #671F1F",
"I c #6D0808",
"U c #6C0909",
"Y c #6E0707",
"T c #5E0D0D",
"R c #840909",
"E c #810909",
"W c #6C1010",
"Q c #7C1717",
"! c #7F0808",
"~ c #800909",
"^ c #7B0808",
"/ c #5A2B2B",
"( c #870707",
") c #5B1B1B",
"_ c #5C1C1C",
"` c #552222",
"' c #602B2B",
"] c #5C1D1D",
"[ c #5B1C1C",
"{ c #5C1A1A",
"} c #4A3131",
"| c #5D1D1D",
/* pixels */
" .XoO+@o#$",
"%&*=-;:>,<",
"1234516789",
"0qwertyui<",
"pasdfghjkl",
"zxcvb9nmMN",
"BVxxCZASDF",
"GHJKLPIUYT",
"REWQ!~^/(!",
")_`'][{}|{"
};
